<?xml version="1.0" encoding="UTF-8" standalone="no"?>
<!-- Generator: Adobe Illustrator 23.1.1, SVG Export Plug-In . SVG Version: 6.00 Build 0)  -->

<svg
   xmlns:dc="http://purl.org/dc/elements/1.1/"
   xmlns:cc="http://creativecommons.org/ns#"
   xmlns:rdf="http://www.w3.org/1999/02/22-rdf-syntax-ns#"
   xmlns:svg="http://www.w3.org/2000/svg"
   xmlns="http://www.w3.org/2000/svg"
   xmlns:sodipodi="http://sodipodi.sourceforge.net/DTD/sodipodi-0.dtd"
   xmlns:inkscape="http://www.inkscape.org/namespaces/inkscape"
   version="1.1"
   id="Logo"
   x="0px"
   y="0px"
   viewBox="0 0 566.9 361.2"
   style="enable-background:new 0 0 566.9 361.2;"
   xml:space="preserve"
   sodipodi:docname="AutoScout24 Logo 2020.svg"
   inkscape:version="0.92.1 r15371"><metadata
     id="metadata41"><rdf:RDF><cc:Work
         rdf:about=""><dc:format>image/svg+xml</dc:format><dc:type
           rdf:resource="http://purl.org/dc/dcmitype/StillImage" /><dc:title></dc:title></cc:Work></rdf:RDF></metadata><defs
     id="defs39" /><sodipodi:namedview
     pagecolor="#ffffff"
     bordercolor="#666666"
     borderopacity="1"
     objecttolerance="10"
     gridtolerance="10"
     guidetolerance="10"
     inkscape:pageopacity="0"
     inkscape:pageshadow="2"
     inkscape:window-width="640"
     inkscape:window-height="480"
     id="namedview37"
     showgrid="false"
     inkscape:zoom="0.65337761"
     inkscape:cx="283.45001"
     inkscape:cy="180.60001"
     inkscape:window-x="0"
     inkscape:window-y="0"
     inkscape:window-maximized="0"
     inkscape:current-layer="Logo" /><style
     type="text/css"
     id="style2">
	.st0{fill:#F5F200;}
	.st1{fill:#333333;}
</style><path
     style="fill:#f5f200"
     inkscape:connector-curvature="0"
     id="path4"
     d="m 85.4,227.8 c -0.1,-2 0.4,-2.5 0.7,-3.3 0.1,-0.2 0.2,0 0.3,-0.2 0.1,-0.3 0.3,-0.8 0.2,-1.1 -0.1,-0.7 -0.2,-1.4 -0.4,-1.9 -0.4,-1.2 -0.5,-3.1 -0.2,-4.3 0.2,-0.9 0.2,-1.7 0,-2.6 -0.2,-1.2 -0.5,-2.1 -0.9,-2.8 -0.2,-0.4 -0.5,-1 -0.6,-1.6 -0.1,-0.2 -0.1,-1 0,-1.1 0.3,-0.5 0.7,-0.9 1.1,-1.3 0.2,-0.2 0.5,0.1 0.6,-0.2 0.3,-0.6 -0.2,-1.3 -0.1,-2 0,-0.1 0,-0.3 0,-0.4 0,-1.1 0,-2.3 -0.4,-3.2 -0.2,-0.4 -0.1,-1.4 0.2,-1.5 0.5,-0.2 0.3,-0.9 0.1,-1.7 -0.1,-0.6 -0.3,-1.2 -0.4,-1.8 -0.1,-0.4 -0.5,-1.7 -0.3,-2.1 0.1,-0.2 0.2,0.1 0.3,0.1 0.1,0 0.2,-0.1 0.2,-0.4 0.1,-0.5 0.2,-1.3 0.4,-1.4 0.4,-0.1 0.4,-2.4 0.7,-3 0.5,-1 0.5,-2.4 0.4,-4 -0.1,-2.2 -0.1,-2.2 0.3,-3.6 0.1,-0.2 0.1,-0.4 0.2,-0.6 0.1,-0.8 0.3,-1 0.6,-0.9 0.1,0.1 0.3,0.1 0.4,0 0.4,-0.1 0.4,-0.6 0.2,-1.3 -0.3,-0.9 -0.7,-1.4 -1.1,-2.2 -0.2,-0.5 -0.5,-0.9 -0.6,-1.5 -0.1,-0.6 -0.1,-1.4 -0.1,-2.1 0,-0.2 0.3,-0.3 0.4,-0.2 0.2,0.1 0.4,0.8 0.5,-0.1 0.1,-0.8 -0.1,-1.1 -0.3,-1.5 0,-0.1 -0.1,-0.2 -0.1,-0.3 -0.4,-1.2 -0.4,-1.8 0.1,-2.3 0.4,-0.4 0.6,-1.2 0.5,-2.6 0,-0.8 0,-1.7 -0.1,-2.4 -0.1,-1 0,-1 0.2,-1 0.1,0 0.4,-0.2 0.4,-0.4 0,-0.5 -0.1,-1 -0.2,-1.4 -0.1,-0.5 -0.3,-0.9 -0.4,-1.4 0,-0.2 0,-0.5 0,-0.8 0.1,0.1 0.1,0.2 0.2,0.3 0.2,0.2 0.5,0.6 0.7,0.7 0.1,0 0.4,-0.4 0.4,-0.6 0,-0.6 -0.1,-1.6 -0.3,-1.7 -0.6,-0.7 -0.7,-2.4 -0.8,-3.7 -0.1,-1.6 -0.3,-2.5 -0.8,-2.9 -0.5,-0.4 -0.2,-0.8 -0.1,-1.2 0.3,-0.7 0.5,-1.6 0.3,-3 -0.1,-0.6 -0.1,-1.6 0.2,-1.7 0.4,-0.2 0.4,-1.2 0.3,-2.1 -0.3,-1.4 0,-1.1 0.3,-1.1 0.2,0 0.4,-0.1 0.5,-0.4 0.2,-0.6 -0.2,-2.6 -0.4,-2.9 -0.3,-0.4 -0.6,-0.7 -0.8,-1.1 -0.1,-0.2 -0.1,-0.8 -0.2,-1.2 0.1,0 0.2,-0.2 0.3,0 0.5,0.8 0.8,-0.5 1.3,-0.7 0.1,0 0.1,-0.6 0.1,-0.9 -0.1,-0.5 -0.2,-1 -0.3,-1.4 -0.2,-0.8 -0.5,-1.4 0,-2 0.3,-0.4 0.2,-1.4 -0.1,-2 -0.2,-0.3 -0.4,-0.8 -0.5,-1.2 -0.1,-0.3 -0.1,-0.8 -0.2,-1.2 0.1,-0.1 0.3,-0.3 0.4,-0.4 0.1,-0.1 0.3,0.1 0.5,0 0.1,-0.1 0.3,-0.3 0.3,-0.6 0,-0.4 0,-1.3 -0.1,-1.5 -0.6,-1 -0.5,-2.7 -0.4,-3.9 0.1,-1 0.1,-1.5 -0.2,-2.2 -0.1,-0.2 -0.1,-0.7 -0.1,-1.1 0.1,0 0.2,0 0.3,0.1 0.1,0.1 0.2,0.3 0.2,0.4 0,0 0.1,-0.3 0.1,-0.3 -0.2,-0.9 -0.1,-2.4 -0.7,-2.9 -0.4,-0.4 -0.7,-1.8 -0.6,-3 0,-1.2 0.3,-1.6 0.6,-1.7 0.5,-0.1 0.7,-1 0.6,-2.5 0,-1.6 0.1,-1.8 0.6,-1.8 0.6,0 0.6,-0.4 0.3,-2 -0.1,-0.4 -0.2,-0.7 -0.4,-1 -0.2,-0.5 -0.3,-0.8 -0.1,-1.5 0.2,-1 0.1,-1.9 -0.3,-2.7 -0.1,-0.3 -0.3,-0.7 -0.4,-1.1 -0.1,-0.3 -0.1,-0.7 -0.2,-1 -0.1,-0.5 0,-1.1 0.1,-1.3 0.2,-0.3 0.3,-0.5 0.5,-0.9 0.1,-0.2 0.2,-0.5 0.1,-1 0,-0.2 0,-0.5 0,-0.7 -0.1,-0.8 -0.2,-1.6 -0.1,-2.3 0.1,-0.6 0.1,-1.4 0.2,-1.9 0.1,-0.2 0,-0.4 -0.1,-0.8 0,-0.1 -0.1,-0.2 -0.1,-0.3 0.2,-0.5 0.2,-1.3 0.4,-1.5 0,0 0.1,-0.1 0.1,-0.2 0.1,-0.3 0.2,-0.7 0.2,-1.2 -0.1,-0.6 -0.1,-1.3 -0.2,-1.9 0.1,-0.3 0.1,-0.7 0.1,-1.3 0.1,-0.2 0.1,-0.5 0,-0.8 0,-0.1 0,-0.2 -0.1,-0.4 0,-0.6 -0.1,-1.1 -0.1,-1.5 -0.1,-0.6 -0.1,-1.2 -0.1,-1.8 0,-1.3 1.4,-3 1.1,-3.9 C 90.6,72.6 90.4,72.2 90.3,71.8 90,70.6 90,70.6 90.4,70 c 0.1,-0.2 0.3,-0.6 0.2,-0.9 0,-0.5 -0.1,-1.1 -0.2,-1.4 -0.4,-0.9 -0.8,-1.7 -1.2,-2.6 -0.2,-0.5 1,-2.1 1.1,-3 0.1,-1.3 0.1,-3.2 -0.2,-3.9 -0.4,-1.1 -0.2,-0.8 -0.6,-1.9 0,0 1.3,-2.7 1.2,-3.6 0,-0.1 0.2,-0.5 0.4,-0.7 0.1,-0.1 0.2,-0.2 0.2,-0.5 0,0 0.4,-1 -0.5,-1.8 0,0 -1.9,-3.5 0.2,-4.2 l 0.4,-0.8 0.3,-1.2 c 0,0 0.6,-2.3 1,-2.6 l 0.2,-0.2 c 0.2,-0.1 0.5,-0.2 0.7,-0.2 0.2,0 0.3,-0.1 0.5,-0.2 0.3,-0.2 0.6,-0.3 0.9,-0.4 0.5,-0.2 0.9,-0.2 1.3,0 0.1,0 0.2,0.1 0.4,0.1 0,0 1.1,0.2 2.7,0.6 54.9,14.6 245.7,-1.5 373.8,-37.2 3.3,-0.9 8.6,-2.2 9.8,-2.4 1.1,-0.3 0.4,0.9 -0.8,1.9 -0.8,0.7 -4.8,1.3 -5,1.5 -0.1,0.1 -0.3,0.4 -0.3,0.5 0.8,1.9 5.8,-0.1 7.8,-0.3 2,-0.2 1.9,0.6 0.7,1.4 -1.8,1.1 -2.2,2.6 -1.4,3.3 0.2,0.2 0.5,0.1 0.7,0.3 0.2,0.3 0.6,0.7 0.5,0.9 -0.2,0.5 -0.5,1 -0.9,1.3 -0.9,0.8 -1.2,2.2 -0.5,3.2 0.5,0.7 0.4,1.3 0,2 -0.5,0.8 -6.2,3.1 -7.1,3.5 -0.5,0.2 -1.5,0.7 -2,1.1 -0.2,0.1 -0.3,0.7 -0.2,0.8 0.8,0.5 6.7,-2.1 7.6,-1.8 0.4,0.2 7.5,-2.1 4.4,0.1 -0.7,0.5 -2.9,2.5 -2.9,3 0,0.1 0,0.2 0,0.3 -0.1,0.8 -0.1,1.7 -0.9,2.3 -0.4,0.3 -0.3,1 0.4,1.2 1,0.3 0.7,0.7 0.2,1.3 -1,1.1 -4.4,2.6 -5.3,3.7 -0.1,0.1 -0.1,0.3 -0.1,0.5 0.2,0 0.5,0.1 0.6,0 0.5,-0.6 1.2,-0.3 1.9,-0.6 1.5,-0.7 5.5,-2.1 6,-2.6 0.9,-0.9 2.5,-0.4 1.5,1.2 -0.3,0.5 -0.6,0.2 -0.9,1.1 -0.1,0.2 -0.3,0.5 -1.1,1.3 -0.7,0.7 -1.2,1.5 -0.5,2.1 1.1,0.9 1.1,2 0.8,3.2 -0.3,1.6 -0.3,1.6 0.7,2.8 0.1,0.2 0.3,0.3 0.3,0.5 0.3,0.7 0.8,0.9 1.4,0.9 0.3,0 0.6,0 0.9,0.1 0.8,0.2 1,0.6 0.3,1.1 -0.8,0.5 -1.7,0.8 -2.5,1.3 -0.5,0.3 -1.2,0.5 -1.5,0.9 -0.3,0.4 -0.7,1.2 -0.3,1.6 0.7,0.5 3.1,-0.6 3.4,-0.6 0.4,0 0.9,-0.5 1.1,0.3 0.2,0.6 -5.2,2.3 -5.6,2.5 -0.1,0 -0.2,0.1 -0.2,0.2 -0.9,0.8 0.8,1 1.9,1.3 1,0.2 4,-1 3.5,-0.3 -0.2,0.2 -2,1.1 -2.2,1.7 -0.3,0.9 -1,0.6 -1,0.8 -0.1,0.6 0,1.3 -0.3,1.8 -0.3,0.7 0,0.7 0.5,0.8 0.3,0.1 -0.1,0.7 -0.1,0.8 0,0.3 -0.2,0.7 -0.5,1 -0.3,0.3 -0.7,0.6 -0.9,0.9 -0.1,0.1 0,0.4 0,0.6 0.2,0 4,-1.1 4.2,-1.2 0.5,-0.1 1.3,-0.4 1.8,-0.4 0.3,0 1.5,-0.2 0.8,0.7 -0.3,0.4 -0.1,0.2 -1.4,0.8 -1.3,0.6 -1.2,0.5 -4.8,3 -2,1.4 -1.3,0.8 -2.4,1.7 -0.4,0.4 0.1,1.1 1,0.6 2.6,-1.2 8.1,-2.6 7.7,-1.7 -0.5,1.1 -1.5,1.9 -1.9,2.9 -0.4,1.3 -1.3,0.9 -1.7,1.2 -0.4,0.3 -0.4,1.3 0.4,1.5 1,0.3 0.4,1.1 0,1.8 -0.6,1 0,0.8 0.6,0.9 0.4,0.1 3.3,-0.5 3.5,-0.2 0.3,0.5 -2.2,1.7 -3,2 -0.2,0.1 -1.1,0.2 -2.5,1.5 -0.1,0.4 -0.6,1.1 -0.4,1.2 0.7,0.1 1.2,-0.2 2.4,-0.3 2.3,-0.2 2.5,-1.1 3.6,-1 0.9,0.1 -1.6,0.7 -2.3,2 -0.5,1 -0.9,0.8 -1.1,1 -0.5,0.5 -1.1,0.9 0,1.5 0.7,0.4 1.7,0.9 1,1.2 -0.4,0.2 -0.6,0.7 -0.6,1.2 0,0.3 0.7,0 1.5,0.4 0.3,0.1 1.1,0.1 1.4,0.2 0.3,0.1 0.6,0.1 0.9,0.2 0.3,0.1 1.3,0.1 1.4,0.4 0.1,0.3 -1.4,1.1 -1.6,1.2 -1.1,0.4 -2.9,1.6 -2.8,2.7 0,0.3 3.4,-1.6 4.2,-1.1 0.9,0.5 -1.2,0.4 -1.7,1.5 -0.5,1.4 -2.6,1.2 -2.7,1.4 -0.1,0.2 -0.3,0.4 -0.6,0.6 -0.2,0.1 -0.2,0.5 -0.3,0.7 0.2,0 0.5,0.1 0.7,0 0.2,0 0.4,-0.2 0.6,-0.2 0.1,0 0.3,0.3 0.2,0.3 -0.6,0.6 -2,1.3 -1.6,1.9 0.1,0.2 1.4,-0.5 2.3,-0.7 1.5,-0.3 1.3,-0.8 2,-0.8 0.7,0 1.4,-0.6 1.1,0 -0.1,0.2 -0.4,0.5 -1,0.6 -0.6,0.1 -0.9,0.7 -0.7,0.7 0.6,0 1.5,0.2 1.5,0.4 0,0.4 0.6,0.2 0.9,0.5 0.3,0.3 2,-1 1.9,0.2 -0.1,0.6 -1.2,1.9 -2.6,2.5 -0.6,0.3 -2.3,1 -2.4,1.8 0,1.2 5.1,-0.1 6.3,0.1 1.3,0.2 1.5,0.5 0.6,1.6 -0.2,0.3 -0.5,0.5 -0.8,0.7 -0.5,0.3 -0.6,0.5 -0.3,1.1 0.5,0.8 0.1,1.4 -0.6,1.9 -0.5,0.4 -1,0.8 -1.5,1.2 -0.2,0.2 -0.2,0.5 -0.3,0.8 0.3,0.1 0.6,0.2 0.9,0.2 0.6,-0.1 1.1,-0.4 1.7,-0.4 1,0 1,0.2 0.7,1.2 -0.2,0.4 -0.3,0.9 -0.3,1.3 0,1 -0.5,1.6 -1.1,2.2 -0.3,0.3 -0.6,0.5 -0.9,0.8 -0.7,0.8 -0.7,0.8 0.2,1.4 0.3,0.2 0.6,0.5 0.5,0.8 0,0.3 -0.3,0.8 -0.6,1 -0.9,0.6 3.1,-0.5 4,2.5 0.1,1 3.4,1.6 2.8,2 -1,0.6 -2.1,1 -3.1,1.6 -0.5,0.4 -0.8,1.1 -1.1,1.7 0,0.1 0.5,0.4 0.8,0.6 0.2,0.1 0.4,0.2 0.4,0.4 0.4,1 1.2,1.2 2.2,1.3 0.5,0 1,0.4 1.4,0.6 -0.4,0.4 -0.8,0.9 -1.3,1.2 -0.6,0.3 -1.3,0.3 -1.8,0.6 -0.5,0.3 0.6,0.5 0.3,0.9 -0.2,0.4 -0.2,1 -0.1,1.4 0,0.1 0.7,0.1 1,0.1 0.2,0 0.5,0.1 0.6,0.3 0.1,0.2 0.1,0.6 -0.1,0.8 -0.2,0.3 -2.3,0.6 -2.6,0.9 -0.6,0.6 -0.5,1.2 0.3,1.5 1.9,0.7 4.3,2 3.4,3.6 -0.4,0.7 -0.1,0.6 0.3,0.7 0.2,0.1 0.5,0 0.8,0.1 0.7,0.2 0.7,0.4 0.2,1 -0.3,0.4 -2.5,1.1 -2.8,1.5 -0.1,0.1 -7.2,3.4 0.1,1.2 0.1,0 0.9,-0.3 1.6,-0.6 0.5,-0.2 1.4,-0.3 1.9,-0.5 0.3,-0.1 0.8,0.3 0.9,0.6 0.1,0.5 -0.1,0.8 -0.7,1 -0.3,0.1 -0.7,0.3 -0.8,0.5 -0.4,0.9 -1.3,1.5 -1.3,2.6 0,0.3 -0.7,0.8 -1.1,1.1 -0.2,0.1 -0.4,0.3 -0.5,0.4 0,0.2 -0.1,0.4 -0.1,0.6 0.1,0.1 0.1,0.2 0.3,0.2 1,0.5 0.7,1.2 0.6,2 -0.1,0.6 2.5,-0.6 3.4,-0.4 0.8,0.2 0.8,1 0.4,1.4 -0.6,0.7 -0.3,0.7 0.4,0.8 0.4,0.1 1.1,0.3 1.1,0.5 0,0.6 -0.2,1.2 -0.4,1.7 -0.1,0.2 -0.5,0.3 -0.8,0.4 -0.6,0.2 -1.2,0.4 -1.8,0.6 -0.1,0.1 -0.3,0.3 -0.2,0.5 0,0.1 0.3,0.3 0.4,0.3 1,-0.5 1.7,0.2 2.5,0.6 0.4,0.2 -2.5,1.2 -1.4,1.7 0.9,0.4 0.9,-0.3 1.4,-0.2 1.2,0 -0.3,1 -2.2,1.1 -1.1,0.1 -1.5,1.2 -1.7,1.4 -0.4,0.3 -0.3,1.1 1.9,0.3 1,-0.4 4.2,1.2 3.1,1.6 -0.1,0 -1.7,1 -1.7,1.1 -0.4,0.5 -1,0.5 -0.3,1.1 0.4,0.2 0.1,0.7 0.6,0.9 0.2,0.1 1.1,0.1 1.3,0.1 0.3,0.2 1.7,-1.5 2.1,-0.6 0.2,0.3 -2.2,2.1 -2.5,2.3 -0.7,0.5 -2.4,1.2 -3,2 -0.2,0.2 1.5,-0.3 1.8,-0.5 0.8,-0.6 1.7,0 1.7,0.1 0.1,0.2 -2.7,1 -3.4,2 -0.3,0.4 -0.3,0.8 -0.7,1.2 -0.6,0.4 -0.6,0.6 0.1,0.8 0.2,0.1 4,-1.2 5.4,-1 1.5,0.1 0.1,0.9 -0.1,1.1 -0.2,0.2 -0.3,1.9 -0.5,2 -0.4,0.3 -1.5,1 -1.6,1.4 -0.5,1.1 7.2,2.1 5.9,2.6 -226.4,95.7 -424.8,54 -429.5,52 0,0 0.1,-0.2 0.1,-0.4 z"
     class="st0" /><path
     style="fill:#333333"
     inkscape:connector-curvature="0"
     id="path6"
     d="m 421.2,342.6 c 2.4,-1.9 4.8,-3.8 7.3,-5.6 22.5,-17.3 45.7,-35.2 45.7,-61.3 0,-20.5 -14.8,-34.8 -35.9,-34.8 -18.6,0 -38.6,12.4 -38.6,39.8 0,1.3 0.1,2.8 0.2,3.7 l 15.2,-5.8 c 0,-15 11.2,-22.9 22.2,-22.9 10.7,0 21.6,6.8 21.6,22.1 0,19.7 -20.1,35.2 -48,56.5 -4,3 -8.1,6.2 -12.4,9.6 l -0.2,0.2 v 14.6 h 79.2 v -15.9 h -56.3 z"
     class="st1" /><path
     style="fill:#333333"
     inkscape:connector-curvature="0"
     id="path8"
     d="m 43.9,291.6 -1.4,-0.5 c -12.5,-5 -21.3,-9.4 -21.3,-20.6 0,-11 8.8,-16.8 17.4,-16.8 7,0 15.8,3.7 19.3,11.8 l 14.7,-5.7 -0.2,-0.5 c -5.8,-14.4 -21,-20.8 -33.6,-20.8 -16.4,0 -34.1,10.4 -34.1,33.1 0,22.2 17,29.1 30.7,34.7 l 1.7,0.7 c 14,5.8 23.1,10.4 23.1,21.8 0,11.8 -9.9,17.1 -19.7,17.1 -9.7,0 -21.3,-5.2 -24.7,-19.7 L 15.6,325.6 0,331.4 c 4.7,18.2 20.2,29.8 39.8,29.8 9.9,0 19,-3 25.8,-8.5 7.7,-6.2 11.8,-15 11.8,-25.5 0,-22.3 -17.8,-29.4 -33.5,-35.6 z"
     class="st1" /><path
     style="fill:#333333"
     inkscape:connector-curvature="0"
     id="path10"
     d="m 208.7,271.1 c -24.3,0 -41.9,18.8 -41.9,44.7 0,25.9 17.6,44.7 41.9,44.7 24.3,0 41.9,-18.8 41.9,-44.7 0,-25.9 -17.6,-44.7 -41.9,-44.7 z m 26.5,44.7 c 0,19.8 -13.3,30.2 -26.4,30.2 -13.3,0 -26.7,-10.4 -26.7,-30.2 0,-17.4 11.2,-30 26.7,-30 15.4,0 26.4,12.6 26.4,30 z"
     class="st1" /><path
     style="fill:#333333"
     inkscape:connector-curvature="0"
     id="path12"
     d="m 314.8,322.3 c 0,15.7 -11.5,24.2 -22.4,24.2 -8.3,0 -17.1,-4.9 -17.1,-18.7 v -54.5 h -15 v 54.5 c 0,24.2 15.7,32.8 29.1,32.8 10.8,0 20.3,-5.2 25.3,-13.6 l 2.9,11.6 h 12.3 v -85.3 h -15 v 49 z"
     class="st1" /><path
     style="fill:#333333"
     inkscape:connector-curvature="0"
     id="path14"
     d="m 369.1,248.9 -15,5.8 v 18.5 H 339.9 V 287 h 14.2 v 46.7 c 0,23.3 13.3,26.8 21.2,26.8 3.5,0 7.2,-0.6 11.1,-1.7 l 0.5,-0.1 v -14.9 l -1,0.6 c -2.3,1.5 -5,2.4 -7.3,2.4 -6,0 -9.5,-4.4 -9.5,-11.9 V 287 h 17.7 v -13.7 h -17.7 z"
     class="st1" /><polygon
     style="fill:#333333"
     id="polygon16"
     points="522.2,242.7 477.6,318.4 477.6,330 531.7,330 531.7,358.5 547,358.5 547,330 566.9,330 566.9,314.5 547,314.5 547,279.8 531.7,285.8 531.7,314.5 497.2,314.5 539.2,242.7 "
     class="st1" /><path
     style="fill:#333333"
     inkscape:connector-curvature="0"
     id="path18"
     d="m 148.8,332.7 c -4.4,8.2 -12.6,13.2 -21.8,13.2 -12.8,0 -25.7,-9.3 -25.7,-30.2 0,-14.4 7.7,-29.8 24.7,-29.8 8.5,0 16,4.5 20,11.9 l 14.3,-5.5 -0.3,-0.5 c -6,-12.7 -19,-20.6 -34.1,-20.6 -10.6,0 -20.4,3.9 -27.6,11.1 -8.1,8.1 -12.5,19.7 -12.5,33.6 0,30.7 21,44.7 40.4,44.7 15.1,0 28.5,-8.2 35.9,-22.1 l 0.3,-0.5 -0.1,-0.1 z"
     class="st1" /><path
     style="fill:#333333"
     inkscape:connector-curvature="0"
     id="path22"
     d="m 181.4,67.7 h -15.8 l -50.9,118 h 18.6 l 12.1,-29.2 h 56.2 l 12.1,29.2 h 18.6 z m 13.9,73.6 h -43.7 l 21.9,-52.9 z"
     class="st1" /><path
     style="fill:#333333"
     inkscape:connector-curvature="0"
     id="path24"
     d="m 288.9,100 v 49.2 c 0,15.6 -11.5,24.1 -22.3,24.1 -8.2,0 -17,-4.9 -17,-18.6 V 100 h -15.3 v 54.7 c 0,10.4 3.1,19.1 9,24.9 5.2,5.2 12.4,8 20.4,8 10.7,0 20.2,-5.1 25.3,-13.4 l 2.8,11.4 h 12.5 V 100 Z"
     class="st1" /><path
     style="fill:#333333"
     inkscape:connector-curvature="0"
     id="path26"
     d="M 362,114 V 100 H 344.3 V 75.6 L 329,81.5 V 100 h -14.3 v 14 H 329 v 46.6 c 0,23.5 13.4,27 21.4,27 3.5,0 7.2,-0.6 11.2,-1.7 l 0.6,-0.2 v -15.3 l -1.2,0.8 c -2.3,1.5 -5,2.4 -7.2,2.4 -5.9,0 -9.3,-4.3 -9.3,-11.8 V 114 Z"
     class="st1" /><path
     style="fill:#333333"
     inkscape:connector-curvature="0"
     id="path28"
     d="m 410.2,97.9 c -12.4,0 -23,4.6 -30.8,13.2 -7.3,8.2 -11.3,19.4 -11.3,31.7 0,12.3 4,23.6 11.3,31.7 7.7,8.6 18.4,13.2 30.7,13.2 24.4,0 42.1,-18.9 42.1,-44.9 0,-26 -17.6,-44.9 -42,-44.9 z m 0.2,74.9 c -13.2,0 -26.6,-10.3 -26.6,-30.1 0,-17.3 11.2,-29.9 26.6,-29.9 15.2,0 26.2,12.6 26.2,29.9 0,19.8 -13.2,30.1 -26.2,30.1 z"
     class="st1" /></svg>